<?xml version="1.0" standalone="no"?>
<!DOCTYPE svg PUBLIC "-//W3C//DTD SVG 20010904//EN"
 "http://www.w3.org/TR/2001/REC-SVG-20010904/DTD/svg10.dtd">
<svg version="1.0" xmlns="http://www.w3.org/2000/svg"
 width="400.000000pt" height="400.000000pt" viewBox="0 0 400.000000 400.000000"
 preserveAspectRatio="xMidYMid meet">

<g transform="translate(0.000000,400.000000) scale(0.100000,-0.100000)"
fill="#000000" stroke="none">
<path d="M422 3738 c-65 -14 -146 -99 -161 -168 -15 -69 -15 -3075 0 -3139 13
-56 58 -114 117 -149 l47 -27 201 0 201 0 49 30 c64 40 111 109 119 178 3 28
5 741 3 1582 l-3 1530 -27 47 c-35 59 -93 104 -149 117 -55 13 -339 12 -397
-1z"/>
<path d="M1422 3738 c-65 -14 -146 -99 -161 -168 -15 -69 -15 -3075 0 -3139
13 -56 58 -114 117 -149 l47 -27 201 0 201 0 49 30 c64 40 111 109 119 178 3
28 5 741 3 1582 l-3 1530 -27 47 c-35 59 -93 104 -149 117 -55 13 -339 12
-397 -1z"/>
<path d="M2652 3720 c-12 -5 -71 -21 -130 -36 -127 -32 -165 -50 -213 -101
-37 -39 -69 -115 -69 -164 0 -15 12 -71 26 -125 48 -181 84 -318 103 -389 11
-38 29 -105 40 -147 12 -43 30 -113 42 -155 31 -114 49 -181 64 -243 33 -129
85 -324 118 -440 46 -166 82 -298 122 -450 80 -308 95 -361 120 -450 27 -97
85 -310 110 -410 7 -30 20 -80 28 -111 24 -97 65 -158 133 -196 53 -30 65 -33
124 -30 69 4 305 63 355 90 48 25 101 88 119 141 25 76 24 78 -43 328 -12 43
-30 112 -41 153 -11 41 -29 110 -41 153 -12 42 -27 100 -34 127 -7 28 -23 86
-35 130 -29 107 -49 178 -65 245 -33 129 -85 324 -118 440 -46 166 -82 298
-122 450 -80 308 -95 361 -120 450 -27 97 -85 310 -110 410 -7 30 -20 80 -28
111 -24 98 -65 158 -133 196 -49 27 -69 33 -119 32 -33 0 -70 -4 -83 -9z"/>
</g>
</svg>
